<?xml version="1.0" encoding="UTF-8" standalone="no"?>
<!DOCTYPE svg PUBLIC "-//W3C//DTD SVG 1.1//EN"
 "http://www.w3.org/Graphics/SVG/1.1/DTD/svg11.dtd">
<!-- Generated by graphviz version 5.0.0 (20220707.1540)
 -->
<!-- Title: dependencies Pages: 1 -->
<svg width="600pt" height="174pt"
 viewBox="0.00 0.00 600.00 173.80" xmlns="http://www.w3.org/2000/svg" xmlns:xlink="http://www.w3.org/1999/xlink">
<g id="graph0" class="graph" transform="scale(1 1) rotate(0) translate(4 169.8)">
<title>dependencies</title>
<polygon fill="white" stroke="transparent" points="-4,4 -4,-169.8 596,-169.8 596,4 -4,4"/>
<text text-anchor="middle" x="296" y="-8.2" font-family="sans-serif" font-size="14.00">dependencies</text>
<g id="clust1" class="cluster">
<title>cluster_WorkflowsModule</title>
<polygon fill="none" stroke="black" stroke-dasharray="1,5" points="8,-32.8 8,-157.8 584,-157.8 584,-32.8 8,-32.8"/>
</g>
<g id="clust5" class="cluster">
<title>cluster_WorkflowsModule_imports</title>
<polygon fill="none" stroke="black" points="392,-40.8 392,-92.8 576,-92.8 576,-40.8 392,-40.8"/>
</g>
<g id="clust2" class="cluster">
<title>cluster_WorkflowsModule_declarations</title>
<polygon fill="none" stroke="black" points="16,-40.8 16,-92.8 384,-92.8 384,-40.8 16,-40.8"/>
</g>
<!-- WorkflowDetailComponent -->
<g id="node1" class="node">
<title>WorkflowDetailComponent</title>
<polygon fill="#ffffb3" stroke="black" points="375.58,-84.8 202.42,-84.8 202.42,-48.8 375.58,-48.8 375.58,-84.8"/>
<text text-anchor="middle" x="289" y="-62.6" font-family="Times,serif" font-size="14.00">WorkflowDetailComponent</text>
</g>
<!-- WorkflowsModule -->
<g id="node3" class="node">
<title>WorkflowsModule</title>
<polygon fill="#8dd3c7" stroke="black" points="350.04,-149.8 347.04,-153.8 326.04,-153.8 323.04,-149.8 227.96,-149.8 227.96,-113.8 350.04,-113.8 350.04,-149.8"/>
<text text-anchor="middle" x="289" y="-127.6" font-family="Times,serif" font-size="14.00">WorkflowsModule</text>
</g>
<!-- WorkflowDetailComponent&#45;&gt;WorkflowsModule -->
<g id="edge1" class="edge">
<title>WorkflowDetailComponent&#45;&gt;WorkflowsModule</title>
<path fill="none" stroke="black" d="M289,-84.91C289,-84.91 289,-103.79 289,-103.79"/>
<polygon fill="black" stroke="black" points="285.5,-103.79 289,-113.79 292.5,-103.79 285.5,-103.79"/>
</g>
<!-- WorkflowListComponent -->
<g id="node2" class="node">
<title>WorkflowListComponent</title>
<polygon fill="#ffffb3" stroke="black" points="184.15,-84.8 23.85,-84.8 23.85,-48.8 184.15,-48.8 184.15,-84.8"/>
<text text-anchor="middle" x="104" y="-62.6" font-family="Times,serif" font-size="14.00">WorkflowListComponent</text>
</g>
<!-- WorkflowListComponent&#45;&gt;WorkflowsModule -->
<g id="edge2" class="edge">
<title>WorkflowListComponent&#45;&gt;WorkflowsModule</title>
<path fill="none" stroke="black" d="M104,-84.91C104,-104.14 104,-131.8 104,-131.8 104,-131.8 217.91,-131.8 217.91,-131.8"/>
<polygon fill="black" stroke="black" points="217.91,-135.3 227.91,-131.8 217.91,-128.3 217.91,-135.3"/>
</g>
<!-- WorkflowsRoutingModule -->
<g id="node4" class="node">
<title>WorkflowsRoutingModule</title>
<polygon fill="#8dd3c7" stroke="black" points="567.66,-84.8 564.66,-88.8 543.66,-88.8 540.66,-84.8 400.34,-84.8 400.34,-48.8 567.66,-48.8 567.66,-84.8"/>
<text text-anchor="middle" x="484" y="-62.6" font-family="Times,serif" font-size="14.00">WorkflowsRoutingModule</text>
</g>
<!-- WorkflowsRoutingModule&#45;&gt;WorkflowsModule -->
<g id="edge3" class="edge">
<title>WorkflowsRoutingModule&#45;&gt;WorkflowsModule</title>
<path fill="none" stroke="black" d="M484,-84.91C484,-104.14 484,-131.8 484,-131.8 484,-131.8 360.16,-131.8 360.16,-131.8"/>
<polygon fill="black" stroke="black" points="360.16,-128.3 350.16,-131.8 360.16,-135.3 360.16,-128.3"/>
</g>
</g>
</svg>
