<?xml version="1.0" encoding="UTF-8" standalone="no"?>
<!DOCTYPE svg PUBLIC "-//W3C//DTD SVG 1.1//EN"
 "http://www.w3.org/Graphics/SVG/1.1/DTD/svg11.dtd">
<!-- Generated by graphviz version 5.0.0 (20220707.1540)
 -->
<!-- Title: dependencies Pages: 1 -->
<svg width="847pt" height="174pt"
 viewBox="0.00 0.00 847.00 173.80" xmlns="http://www.w3.org/2000/svg" xmlns:xlink="http://www.w3.org/1999/xlink">
<g id="graph0" class="graph" transform="scale(1 1) rotate(0) translate(4 169.8)">
<title>dependencies</title>
<polygon fill="white" stroke="transparent" points="-4,4 -4,-169.8 843,-169.8 843,4 -4,4"/>
<text text-anchor="middle" x="419.5" y="-8.2" font-family="sans-serif" font-size="14.00">dependencies</text>
<g id="clust1" class="cluster">
<title>cluster_AuthModule</title>
<polygon fill="none" stroke="black" stroke-dasharray="1,5" points="8,-32.8 8,-157.8 831,-157.8 831,-32.8 8,-32.8"/>
</g>
<g id="clust2" class="cluster">
<title>cluster_AuthModule_declarations</title>
<polygon fill="none" stroke="black" points="172,-40.8 172,-92.8 823,-92.8 823,-40.8 172,-40.8"/>
</g>
<g id="clust7" class="cluster">
<title>cluster_AuthModule_imports</title>
<polygon fill="none" stroke="black" points="16,-40.8 16,-92.8 164,-92.8 164,-40.8 16,-40.8"/>
</g>
<!-- ForgotPasswordComponent -->
<g id="node1" class="node">
<title>ForgotPasswordComponent</title>
<polygon fill="#ffffb3" stroke="black" points="815.34,-84.8 642.66,-84.8 642.66,-48.8 815.34,-48.8 815.34,-84.8"/>
<text text-anchor="middle" x="729" y="-62.6" font-family="Times,serif" font-size="14.00">ForgotPasswordComponent</text>
</g>
<!-- AuthModule -->
<g id="node5" class="node">
<title>AuthModule</title>
<polygon fill="#8dd3c7" stroke="black" points="471.55,-149.8 468.55,-153.8 447.55,-153.8 444.55,-149.8 384.45,-149.8 384.45,-113.8 471.55,-113.8 471.55,-149.8"/>
<text text-anchor="middle" x="428" y="-127.6" font-family="Times,serif" font-size="14.00">AuthModule</text>
</g>
<!-- ForgotPasswordComponent&#45;&gt;AuthModule -->
<g id="edge1" class="edge">
<title>ForgotPasswordComponent&#45;&gt;AuthModule</title>
<path fill="none" stroke="black" d="M729,-85.08C729,-106.12 729,-137.8 729,-137.8 729,-137.8 481.77,-137.8 481.77,-137.8"/>
<polygon fill="black" stroke="black" points="481.77,-134.3 471.77,-137.8 481.77,-141.3 481.77,-134.3"/>
</g>
<!-- LoginComponent -->
<g id="node2" class="node">
<title>LoginComponent</title>
<polygon fill="#ffffb3" stroke="black" points="624.27,-84.8 509.73,-84.8 509.73,-48.8 624.27,-48.8 624.27,-84.8"/>
<text text-anchor="middle" x="567" y="-62.6" font-family="Times,serif" font-size="14.00">LoginComponent</text>
</g>
<!-- LoginComponent&#45;&gt;AuthModule -->
<g id="edge2" class="edge">
<title>LoginComponent&#45;&gt;AuthModule</title>
<path fill="none" stroke="black" d="M567,-84.82C567,-102.17 567,-125.8 567,-125.8 567,-125.8 481.6,-125.8 481.6,-125.8"/>
<polygon fill="black" stroke="black" points="481.6,-122.3 471.6,-125.8 481.6,-129.3 481.6,-122.3"/>
</g>
<!-- RegisterComponent -->
<g id="node3" class="node">
<title>RegisterComponent</title>
<polygon fill="#ffffb3" stroke="black" points="491.99,-84.8 364.01,-84.8 364.01,-48.8 491.99,-48.8 491.99,-84.8"/>
<text text-anchor="middle" x="428" y="-62.6" font-family="Times,serif" font-size="14.00">RegisterComponent</text>
</g>
<!-- RegisterComponent&#45;&gt;AuthModule -->
<g id="edge3" class="edge">
<title>RegisterComponent&#45;&gt;AuthModule</title>
<path fill="none" stroke="black" d="M428,-84.91C428,-84.91 428,-103.79 428,-103.79"/>
<polygon fill="black" stroke="black" points="424.5,-103.79 428,-113.79 431.5,-103.79 424.5,-103.79"/>
</g>
<!-- ResetPasswordComponent -->
<g id="node4" class="node">
<title>ResetPasswordComponent</title>
<polygon fill="#ffffb3" stroke="black" points="346.1,-84.8 179.9,-84.8 179.9,-48.8 346.1,-48.8 346.1,-84.8"/>
<text text-anchor="middle" x="263" y="-62.6" font-family="Times,serif" font-size="14.00">ResetPasswordComponent</text>
</g>
<!-- ResetPasswordComponent&#45;&gt;AuthModule -->
<g id="edge4" class="edge">
<title>ResetPasswordComponent&#45;&gt;AuthModule</title>
<path fill="none" stroke="black" d="M263,-84.82C263,-102.17 263,-125.8 263,-125.8 263,-125.8 374.22,-125.8 374.22,-125.8"/>
<polygon fill="black" stroke="black" points="374.22,-129.3 384.22,-125.8 374.22,-122.3 374.22,-129.3"/>
</g>
<!-- AuthRoutingModule -->
<g id="node6" class="node">
<title>AuthRoutingModule</title>
<polygon fill="#8dd3c7" stroke="black" points="156.17,-84.8 153.17,-88.8 132.17,-88.8 129.17,-84.8 23.83,-84.8 23.83,-48.8 156.17,-48.8 156.17,-84.8"/>
<text text-anchor="middle" x="90" y="-62.6" font-family="Times,serif" font-size="14.00">AuthRoutingModule</text>
</g>
<!-- AuthRoutingModule&#45;&gt;AuthModule -->
<g id="edge5" class="edge">
<title>AuthRoutingModule&#45;&gt;AuthModule</title>
<path fill="none" stroke="black" d="M90,-85.08C90,-106.12 90,-137.8 90,-137.8 90,-137.8 374.16,-137.8 374.16,-137.8"/>
<polygon fill="black" stroke="black" points="374.16,-141.3 384.16,-137.8 374.16,-134.3 374.16,-141.3"/>
</g>
</g>
</svg>
