<?xml version="1.0" encoding="UTF-8" standalone="no"?>
<!DOCTYPE svg PUBLIC "-//W3C//DTD SVG 1.1//EN"
 "http://www.w3.org/Graphics/SVG/1.1/DTD/svg11.dtd">
<!-- Generated by graphviz version 5.0.0 (20220707.1540)
 -->
<!-- Title: dependencies Pages: 1 -->
<svg width="224pt" height="174pt"
 viewBox="0.00 0.00 224.00 173.80" xmlns="http://www.w3.org/2000/svg" xmlns:xlink="http://www.w3.org/1999/xlink">
<g id="graph0" class="graph" transform="scale(1 1) rotate(0) translate(4 169.8)">
<title>dependencies</title>
<polygon fill="white" stroke="transparent" points="-4,4 -4,-169.8 220,-169.8 220,4 -4,4"/>
<text text-anchor="middle" x="108" y="-8.2" font-family="sans-serif" font-size="14.00">dependencies</text>
<g id="clust1" class="cluster">
<title>cluster_DocumentsModule</title>
<polygon fill="none" stroke="black" stroke-dasharray="1,5" points="8,-32.8 8,-157.8 208,-157.8 208,-32.8 8,-32.8"/>
</g>
<g id="clust3" class="cluster">
<title>cluster_DocumentsModule_imports</title>
<polygon fill="none" stroke="black" points="16,-40.8 16,-92.8 200,-92.8 200,-40.8 16,-40.8"/>
</g>
<!-- DocumentsRoutingModule -->
<g id="node1" class="node">
<title>DocumentsRoutingModule</title>
<polygon fill="#8dd3c7" stroke="black" points="192.44,-84.8 189.44,-88.8 168.44,-88.8 165.44,-84.8 23.56,-84.8 23.56,-48.8 192.44,-48.8 192.44,-84.8"/>
<text text-anchor="middle" x="108" y="-62.6" font-family="Times,serif" font-size="14.00">DocumentsRoutingModule</text>
</g>
<!-- DocumentsModule -->
<g id="node2" class="node">
<title>DocumentsModule</title>
<polygon fill="#8dd3c7" stroke="black" points="169.82,-149.8 166.82,-153.8 145.82,-153.8 142.82,-149.8 46.18,-149.8 46.18,-113.8 169.82,-113.8 169.82,-149.8"/>
<text text-anchor="middle" x="108" y="-127.6" font-family="Times,serif" font-size="14.00">DocumentsModule</text>
</g>
<!-- DocumentsRoutingModule&#45;&gt;DocumentsModule -->
<g id="edge1" class="edge">
<title>DocumentsRoutingModule&#45;&gt;DocumentsModule</title>
<path fill="none" stroke="black" d="M108,-84.91C108,-84.91 108,-103.79 108,-103.79"/>
<polygon fill="black" stroke="black" points="104.5,-103.79 108,-113.79 111.5,-103.79 104.5,-103.79"/>
</g>
</g>
</svg>
