<?xml version="1.0" encoding="UTF-8" standalone="no"?>
<!DOCTYPE svg PUBLIC "-//W3C//DTD SVG 1.1//EN"
 "http://www.w3.org/Graphics/SVG/1.1/DTD/svg11.dtd">
<!-- Generated by graphviz version 5.0.0 (20220707.1540)
 -->
<!-- Title: dependencies Pages: 1 -->
<svg width="472pt" height="247pt"
 viewBox="0.00 0.00 472.00 246.80" xmlns="http://www.w3.org/2000/svg" xmlns:xlink="http://www.w3.org/1999/xlink">
<g id="graph0" class="graph" transform="scale(1 1) rotate(0) translate(4 242.8)">
<title>dependencies</title>
<polygon fill="white" stroke="transparent" points="-4,4 -4,-242.8 468,-242.8 468,4 -4,4"/>
<text text-anchor="middle" x="232" y="-8.2" font-family="sans-serif" font-size="14.00">dependencies</text>
<g id="clust1" class="cluster">
<title>cluster_LibModule</title>
<polygon fill="none" stroke="black" stroke-dasharray="1,5" points="8,-32.8 8,-230.8 456,-230.8 456,-32.8 8,-32.8"/>
</g>
<g id="clust5" class="cluster">
<title>cluster_LibModule_imports</title>
<polygon fill="none" stroke="black" points="294,-40.8 294,-92.8 448,-92.8 448,-40.8 294,-40.8"/>
</g>
<g id="clust6" class="cluster">
<title>cluster_LibModule_exports</title>
<polygon fill="none" stroke="black" points="83,-170.8 83,-222.8 359,-222.8 359,-170.8 83,-170.8"/>
</g>
<g id="clust2" class="cluster">
<title>cluster_LibModule_declarations</title>
<polygon fill="none" stroke="black" points="16,-40.8 16,-92.8 286,-92.8 286,-40.8 16,-40.8"/>
</g>
<!-- DefaultComponent -->
<g id="node1" class="node">
<title>DefaultComponent</title>
<polygon fill="#ffffb3" stroke="black" points="277.81,-84.8 154.19,-84.8 154.19,-48.8 277.81,-48.8 277.81,-84.8"/>
<text text-anchor="middle" x="216" y="-62.6" font-family="Times,serif" font-size="14.00">DefaultComponent</text>
</g>
<!-- LibModule -->
<g id="node3" class="node">
<title>LibModule</title>
<polygon fill="#8dd3c7" stroke="black" points="255.49,-149.8 252.49,-153.8 231.49,-153.8 228.49,-149.8 176.51,-149.8 176.51,-113.8 255.49,-113.8 255.49,-149.8"/>
<text text-anchor="middle" x="216" y="-127.6" font-family="Times,serif" font-size="14.00">LibModule</text>
</g>
<!-- DefaultComponent&#45;&gt;LibModule -->
<g id="edge1" class="edge">
<title>DefaultComponent&#45;&gt;LibModule</title>
<path fill="none" stroke="black" d="M216,-84.91C216,-84.91 216,-103.79 216,-103.79"/>
<polygon fill="black" stroke="black" points="212.5,-103.79 216,-113.79 219.5,-103.79 212.5,-103.79"/>
</g>
<!-- ToastComponent -->
<g id="node2" class="node">
<title>ToastComponent</title>
<polygon fill="#ffffb3" stroke="black" points="136.44,-84.8 23.56,-84.8 23.56,-48.8 136.44,-48.8 136.44,-84.8"/>
<text text-anchor="middle" x="80" y="-62.6" font-family="Times,serif" font-size="14.00">ToastComponent</text>
</g>
<!-- ToastComponent&#45;&gt;LibModule -->
<g id="edge2" class="edge">
<title>ToastComponent&#45;&gt;LibModule</title>
<path fill="none" stroke="black" d="M113.62,-84.91C113.62,-104.14 113.62,-131.8 113.62,-131.8 113.62,-131.8 166.42,-131.8 166.42,-131.8"/>
<polygon fill="black" stroke="black" points="166.42,-135.3 176.42,-131.8 166.42,-128.3 166.42,-135.3"/>
</g>
<!-- DefaultComponent  -->
<g id="node5" class="node">
<title>DefaultComponent </title>
<polygon fill="#fb8072" stroke="black" points="351.31,-214.8 224.69,-214.8 224.69,-178.8 351.31,-178.8 351.31,-214.8"/>
<text text-anchor="middle" x="288" y="-192.6" font-family="Times,serif" font-size="14.00">DefaultComponent </text>
</g>
<!-- LibModule&#45;&gt;DefaultComponent  -->
<g id="edge4" class="edge">
<title>LibModule&#45;&gt;DefaultComponent </title>
<path fill="none" stroke="black" stroke-dasharray="5,2" d="M240.05,-149.91C240.05,-149.91 240.05,-168.79 240.05,-168.79"/>
<polygon fill="black" stroke="black" points="236.55,-168.79 240.05,-178.79 243.55,-168.79 236.55,-168.79"/>
</g>
<!-- ToastComponent  -->
<g id="node6" class="node">
<title>ToastComponent </title>
<polygon fill="#fb8072" stroke="black" points="206.93,-214.8 91.07,-214.8 91.07,-178.8 206.93,-178.8 206.93,-214.8"/>
<text text-anchor="middle" x="149" y="-192.6" font-family="Times,serif" font-size="14.00">ToastComponent </text>
</g>
<!-- LibModule&#45;&gt;ToastComponent  -->
<g id="edge5" class="edge">
<title>LibModule&#45;&gt;ToastComponent </title>
<path fill="none" stroke="black" stroke-dasharray="5,2" d="M191.74,-149.91C191.74,-149.91 191.74,-168.79 191.74,-168.79"/>
<polygon fill="black" stroke="black" points="188.24,-168.79 191.74,-178.79 195.24,-168.79 188.24,-168.79"/>
</g>
<!-- IconsProviderModule -->
<g id="node4" class="node">
<title>IconsProviderModule</title>
<polygon fill="#8dd3c7" stroke="black" points="440.09,-84.8 437.09,-88.8 416.09,-88.8 413.09,-84.8 301.91,-84.8 301.91,-48.8 440.09,-48.8 440.09,-84.8"/>
<text text-anchor="middle" x="371" y="-62.6" font-family="Times,serif" font-size="14.00">IconsProviderModule</text>
</g>
<!-- IconsProviderModule&#45;&gt;LibModule -->
<g id="edge3" class="edge">
<title>IconsProviderModule&#45;&gt;LibModule</title>
<path fill="none" stroke="black" d="M326.68,-84.91C326.68,-104.14 326.68,-131.8 326.68,-131.8 326.68,-131.8 265.65,-131.8 265.65,-131.8"/>
<polygon fill="black" stroke="black" points="265.65,-128.3 255.65,-131.8 265.65,-135.3 265.65,-128.3"/>
</g>
</g>
</svg>
