<?xml version="1.0" encoding="UTF-8" standalone="no"?>
<!DOCTYPE svg PUBLIC "-//W3C//DTD SVG 1.1//EN"
 "http://www.w3.org/Graphics/SVG/1.1/DTD/svg11.dtd">
<!-- Generated by graphviz version 5.0.0 (20220707.1540)
 -->
<!-- Title: dependencies Pages: 1 -->
<svg width="520pt" height="174pt"
 viewBox="0.00 0.00 520.00 173.80" xmlns="http://www.w3.org/2000/svg" xmlns:xlink="http://www.w3.org/1999/xlink">
<g id="graph0" class="graph" transform="scale(1 1) rotate(0) translate(4 169.8)">
<title>dependencies</title>
<polygon fill="white" stroke="transparent" points="-4,4 -4,-169.8 516,-169.8 516,4 -4,4"/>
<text text-anchor="middle" x="256" y="-8.2" font-family="sans-serif" font-size="14.00">dependencies</text>
<g id="clust1" class="cluster">
<title>cluster_GroupsModule</title>
<polygon fill="none" stroke="black" stroke-dasharray="1,5" points="8,-32.8 8,-157.8 504,-157.8 504,-32.8 8,-32.8"/>
</g>
<g id="clust2" class="cluster">
<title>cluster_GroupsModule_declarations</title>
<polygon fill="none" stroke="black" points="342,-40.8 342,-92.8 496,-92.8 496,-40.8 342,-40.8"/>
</g>
<g id="clust4" class="cluster">
<title>cluster_GroupsModule_imports</title>
<polygon fill="none" stroke="black" points="16,-40.8 16,-92.8 334,-92.8 334,-40.8 16,-40.8"/>
</g>
<!-- GroupListComponent -->
<g id="node1" class="node">
<title>GroupListComponent</title>
<polygon fill="#ffffb3" stroke="black" points="488.38,-84.8 349.62,-84.8 349.62,-48.8 488.38,-48.8 488.38,-84.8"/>
<text text-anchor="middle" x="419" y="-62.6" font-family="Times,serif" font-size="14.00">GroupListComponent</text>
</g>
<!-- GroupsModule -->
<g id="node2" class="node">
<title>GroupsModule</title>
<polygon fill="#8dd3c7" stroke="black" points="303.27,-149.8 300.27,-153.8 279.27,-153.8 276.27,-149.8 202.73,-149.8 202.73,-113.8 303.27,-113.8 303.27,-149.8"/>
<text text-anchor="middle" x="253" y="-127.6" font-family="Times,serif" font-size="14.00">GroupsModule</text>
</g>
<!-- GroupListComponent&#45;&gt;GroupsModule -->
<g id="edge1" class="edge">
<title>GroupListComponent&#45;&gt;GroupsModule</title>
<path fill="none" stroke="black" d="M419,-84.91C419,-104.14 419,-131.8 419,-131.8 419,-131.8 313.71,-131.8 313.71,-131.8"/>
<polygon fill="black" stroke="black" points="313.71,-128.3 303.71,-131.8 313.71,-135.3 313.71,-128.3"/>
</g>
<!-- GroupsRoutingModule -->
<g id="node3" class="node">
<title>GroupsRoutingModule</title>
<polygon fill="#8dd3c7" stroke="black" points="325.89,-84.8 322.89,-88.8 301.89,-88.8 298.89,-84.8 180.11,-84.8 180.11,-48.8 325.89,-48.8 325.89,-84.8"/>
<text text-anchor="middle" x="253" y="-62.6" font-family="Times,serif" font-size="14.00">GroupsRoutingModule</text>
</g>
<!-- GroupsRoutingModule&#45;&gt;GroupsModule -->
<g id="edge2" class="edge">
<title>GroupsRoutingModule&#45;&gt;GroupsModule</title>
<path fill="none" stroke="black" d="M253,-84.91C253,-84.91 253,-103.79 253,-103.79"/>
<polygon fill="black" stroke="black" points="249.5,-103.79 253,-113.79 256.5,-103.79 249.5,-103.79"/>
</g>
<!-- IconsProviderModule -->
<g id="node4" class="node">
<title>IconsProviderModule</title>
<polygon fill="#8dd3c7" stroke="black" points="162.09,-84.8 159.09,-88.8 138.09,-88.8 135.09,-84.8 23.91,-84.8 23.91,-48.8 162.09,-48.8 162.09,-84.8"/>
<text text-anchor="middle" x="93" y="-62.6" font-family="Times,serif" font-size="14.00">IconsProviderModule</text>
</g>
<!-- IconsProviderModule&#45;&gt;GroupsModule -->
<g id="edge3" class="edge">
<title>IconsProviderModule&#45;&gt;GroupsModule</title>
<path fill="none" stroke="black" d="M93,-84.91C93,-104.14 93,-131.8 93,-131.8 93,-131.8 192.38,-131.8 192.38,-131.8"/>
<polygon fill="black" stroke="black" points="192.38,-135.3 202.38,-131.8 192.37,-128.3 192.38,-135.3"/>
</g>
</g>
</svg>
