<?xml version="1.0" encoding="UTF-8" standalone="no"?>
<!DOCTYPE svg PUBLIC "-//W3C//DTD SVG 1.1//EN"
 "http://www.w3.org/Graphics/SVG/1.1/DTD/svg11.dtd">
<!-- Generated by graphviz version 5.0.0 (20220707.1540)
 -->
<!-- Title: dependencies Pages: 1 -->
<svg width="574pt" height="174pt"
 viewBox="0.00 0.00 574.00 173.80" xmlns="http://www.w3.org/2000/svg" xmlns:xlink="http://www.w3.org/1999/xlink">
<g id="graph0" class="graph" transform="scale(1 1) rotate(0) translate(4 169.8)">
<title>dependencies</title>
<polygon fill="white" stroke="transparent" points="-4,4 -4,-169.8 570,-169.8 570,4 -4,4"/>
<text text-anchor="middle" x="283" y="-8.2" font-family="sans-serif" font-size="14.00">dependencies</text>
<g id="clust1" class="cluster">
<title>cluster_GroupRolesModule</title>
<polygon fill="none" stroke="black" stroke-dasharray="1,5" points="8,-32.8 8,-157.8 558,-157.8 558,-32.8 8,-32.8"/>
</g>
<g id="clust2" class="cluster">
<title>cluster_GroupRolesModule_declarations</title>
<polygon fill="none" stroke="black" points="368,-40.8 368,-92.8 550,-92.8 550,-40.8 368,-40.8"/>
</g>
<g id="clust4" class="cluster">
<title>cluster_GroupRolesModule_imports</title>
<polygon fill="none" stroke="black" points="16,-40.8 16,-92.8 360,-92.8 360,-40.8 16,-40.8"/>
</g>
<!-- GroupRoleListComponent -->
<g id="node1" class="node">
<title>GroupRoleListComponent</title>
<polygon fill="#ffffb3" stroke="black" points="541.82,-84.8 376.18,-84.8 376.18,-48.8 541.82,-48.8 541.82,-84.8"/>
<text text-anchor="middle" x="459" y="-62.6" font-family="Times,serif" font-size="14.00">GroupRoleListComponent</text>
</g>
<!-- GroupRolesModule -->
<g id="node2" class="node">
<title>GroupRolesModule</title>
<polygon fill="#8dd3c7" stroke="black" points="329.71,-149.8 326.71,-153.8 305.71,-153.8 302.71,-149.8 202.29,-149.8 202.29,-113.8 329.71,-113.8 329.71,-149.8"/>
<text text-anchor="middle" x="266" y="-127.6" font-family="Times,serif" font-size="14.00">GroupRolesModule</text>
</g>
<!-- GroupRoleListComponent&#45;&gt;GroupRolesModule -->
<g id="edge1" class="edge">
<title>GroupRoleListComponent&#45;&gt;GroupRolesModule</title>
<path fill="none" stroke="black" d="M459,-84.91C459,-104.14 459,-131.8 459,-131.8 459,-131.8 339.73,-131.8 339.73,-131.8"/>
<polygon fill="black" stroke="black" points="339.73,-128.3 329.73,-131.8 339.73,-135.3 339.73,-128.3"/>
</g>
<!-- GroupRolesRoutingModule -->
<g id="node3" class="node">
<title>GroupRolesRoutingModule</title>
<polygon fill="#8dd3c7" stroke="black" points="352.33,-84.8 349.33,-88.8 328.33,-88.8 325.33,-84.8 179.67,-84.8 179.67,-48.8 352.33,-48.8 352.33,-84.8"/>
<text text-anchor="middle" x="266" y="-62.6" font-family="Times,serif" font-size="14.00">GroupRolesRoutingModule</text>
</g>
<!-- GroupRolesRoutingModule&#45;&gt;GroupRolesModule -->
<g id="edge2" class="edge">
<title>GroupRolesRoutingModule&#45;&gt;GroupRolesModule</title>
<path fill="none" stroke="black" d="M266,-84.91C266,-84.91 266,-103.79 266,-103.79"/>
<polygon fill="black" stroke="black" points="262.5,-103.79 266,-113.79 269.5,-103.79 262.5,-103.79"/>
</g>
<!-- IconsProviderModule -->
<g id="node4" class="node">
<title>IconsProviderModule</title>
<polygon fill="#8dd3c7" stroke="black" points="162.09,-84.8 159.09,-88.8 138.09,-88.8 135.09,-84.8 23.91,-84.8 23.91,-48.8 162.09,-48.8 162.09,-84.8"/>
<text text-anchor="middle" x="93" y="-62.6" font-family="Times,serif" font-size="14.00">IconsProviderModule</text>
</g>
<!-- IconsProviderModule&#45;&gt;GroupRolesModule -->
<g id="edge3" class="edge">
<title>IconsProviderModule&#45;&gt;GroupRolesModule</title>
<path fill="none" stroke="black" d="M93,-84.91C93,-104.14 93,-131.8 93,-131.8 93,-131.8 192.07,-131.8 192.07,-131.8"/>
<polygon fill="black" stroke="black" points="192.07,-135.3 202.07,-131.8 192.07,-128.3 192.07,-135.3"/>
</g>
</g>
</svg>
