<?xml version="1.0" encoding="UTF-8" standalone="no"?>
<!DOCTYPE svg PUBLIC "-//W3C//DTD SVG 1.1//EN"
 "http://www.w3.org/Graphics/SVG/1.1/DTD/svg11.dtd">
<!-- Generated by graphviz version 5.0.0 (20220707.1540)
 -->
<!-- Title: dependencies Pages: 1 -->
<svg width="582pt" height="174pt"
 viewBox="0.00 0.00 582.00 173.80" xmlns="http://www.w3.org/2000/svg" xmlns:xlink="http://www.w3.org/1999/xlink">
<g id="graph0" class="graph" transform="scale(1 1) rotate(0) translate(4 169.8)">
<title>dependencies</title>
<polygon fill="white" stroke="transparent" points="-4,4 -4,-169.8 578,-169.8 578,4 -4,4"/>
<text text-anchor="middle" x="287" y="-8.2" font-family="sans-serif" font-size="14.00">dependencies</text>
<g id="clust1" class="cluster">
<title>cluster_DepartmentsModule</title>
<polygon fill="none" stroke="black" stroke-dasharray="1,5" points="8,-32.8 8,-157.8 566,-157.8 566,-32.8 8,-32.8"/>
</g>
<g id="clust2" class="cluster">
<title>cluster_DepartmentsModule_declarations</title>
<polygon fill="none" stroke="black" points="372,-40.8 372,-92.8 558,-92.8 558,-40.8 372,-40.8"/>
</g>
<g id="clust4" class="cluster">
<title>cluster_DepartmentsModule_imports</title>
<polygon fill="none" stroke="black" points="16,-40.8 16,-92.8 364,-92.8 364,-40.8 16,-40.8"/>
</g>
<!-- DepartmentListComponent -->
<g id="node1" class="node">
<title>DepartmentListComponent</title>
<polygon fill="#ffffb3" stroke="black" points="549.69,-84.8 380.31,-84.8 380.31,-48.8 549.69,-48.8 549.69,-84.8"/>
<text text-anchor="middle" x="465" y="-62.6" font-family="Times,serif" font-size="14.00">DepartmentListComponent</text>
</g>
<!-- DepartmentsModule -->
<g id="node2" class="node">
<title>DepartmentsModule</title>
<polygon fill="#8dd3c7" stroke="black" points="333.58,-149.8 330.58,-153.8 309.58,-153.8 306.58,-149.8 202.42,-149.8 202.42,-113.8 333.58,-113.8 333.58,-149.8"/>
<text text-anchor="middle" x="268" y="-127.6" font-family="Times,serif" font-size="14.00">DepartmentsModule</text>
</g>
<!-- DepartmentListComponent&#45;&gt;DepartmentsModule -->
<g id="edge1" class="edge">
<title>DepartmentListComponent&#45;&gt;DepartmentsModule</title>
<path fill="none" stroke="black" d="M465,-84.91C465,-104.14 465,-131.8 465,-131.8 465,-131.8 343.6,-131.8 343.6,-131.8"/>
<polygon fill="black" stroke="black" points="343.6,-128.3 333.6,-131.8 343.6,-135.3 343.6,-128.3"/>
</g>
<!-- DepartmentsRoutingModule -->
<g id="node3" class="node">
<title>DepartmentsRoutingModule</title>
<polygon fill="#8dd3c7" stroke="black" points="356.2,-84.8 353.2,-88.8 332.2,-88.8 329.2,-84.8 179.8,-84.8 179.8,-48.8 356.2,-48.8 356.2,-84.8"/>
<text text-anchor="middle" x="268" y="-62.6" font-family="Times,serif" font-size="14.00">DepartmentsRoutingModule</text>
</g>
<!-- DepartmentsRoutingModule&#45;&gt;DepartmentsModule -->
<g id="edge2" class="edge">
<title>DepartmentsRoutingModule&#45;&gt;DepartmentsModule</title>
<path fill="none" stroke="black" d="M268,-84.91C268,-84.91 268,-103.79 268,-103.79"/>
<polygon fill="black" stroke="black" points="264.5,-103.79 268,-113.79 271.5,-103.79 264.5,-103.79"/>
</g>
<!-- IconsProviderModule -->
<g id="node4" class="node">
<title>IconsProviderModule</title>
<polygon fill="#8dd3c7" stroke="black" points="162.09,-84.8 159.09,-88.8 138.09,-88.8 135.09,-84.8 23.91,-84.8 23.91,-48.8 162.09,-48.8 162.09,-84.8"/>
<text text-anchor="middle" x="93" y="-62.6" font-family="Times,serif" font-size="14.00">IconsProviderModule</text>
</g>
<!-- IconsProviderModule&#45;&gt;DepartmentsModule -->
<g id="edge3" class="edge">
<title>IconsProviderModule&#45;&gt;DepartmentsModule</title>
<path fill="none" stroke="black" d="M93,-84.91C93,-104.14 93,-131.8 93,-131.8 93,-131.8 192.34,-131.8 192.34,-131.8"/>
<polygon fill="black" stroke="black" points="192.34,-135.3 202.34,-131.8 192.34,-128.3 192.34,-135.3"/>
</g>
</g>
</svg>
